# xmcd
#
# Track frame offsets:
#	150
#	13186
#	32858
#	49400
#	67367
#	80470
#	90924
#	102035
#	122042
#	141276
#	157869
#	174830
#	192466
#	214410
#	230471
#	247943
#	264938
#	282345
#	299963
#	315087
#
# Disc length: 4437 seconds
#
# Revision: 4
# Processed by: cddbd v1.5.2PL0 Copyright (c) Steve Scherf et al.
# Submitted via: audiograbber 1.83.01
#
DISCID=20115314
DTITLE=Various Artist - DMC DJ Only 141 CD1
DYEAR=2010
DGENRE=Pop
TTITLE0=Afrojack Ft Eva Simons - Take Over Control
TTITLE1=BT and Andrew Bayer - The Emergency (Dave Aude Radio Edit)
TTITLE2=Cee Lo Green - Fuck You (Explicit)
TTITLE3=Cheryl Cole  - Promise This (Almighty Radio Edit)
TTITLE4=Diana Vickers - My Wicked Heart (Main Version)
TTITLE5=Duck Sauce - Barbra Streisand (UK Radio Edit)
TTITLE6=Edward Maya - This Is My Life (Digital Dog Radio Edit)
TTITLE7=Hurts - Stay (Full Intention Radio Edit)
TTITLE8=Janelle Monae Ft Big Boi - Tightrope
TTITLE9=Jason Derulo - The Sky's The Limit (Radio Edit)
TTITLE10=Katy Perry - Firework (Album Version)
TTITLE11=Nelly - Just A Dream
TTITLE12=Plan B - The Recluse (Netsky Mix)
TTITLE13=Raghav Ft Bashy - So Much (Colonel Potter Radio Edit)
TTITLE14=Rihanna - Only Girl (In The World)
TTITLE15=The Saturdays - Higher (7th Heaven Radio Edit)
TTITLE16=Selena Gomez and The Scene - A Year Without Rain (Radio Edit)
TTITLE17=Shayne Ward - Gotta Be Somebody (Almighty Radio Edit)
TTITLE18=Tinchy Stryder Ft Taio Cruz - Second Chance (Future Freakz Radio Edit)
TTITLE19=Will.i.am Ft Nicki Minaj - Check It Out (Radio Edit)
EXTD=
EXTT0=
EXTT1=
EXTT2=
EXTT3=
EXTT4=
EXTT5=
EXTT6=
EXTT7=
EXTT8=
EXTT9=
EXTT10=
EXTT11=
EXTT12=
EXTT13=
EXTT14=
EXTT15=
EXTT16=
EXTT17=
EXTT18=
EXTT19=
PLAYORDER=
